<?xml version="1.0" encoding="UTF-8"?>
<svg id="Capa_1" xmlns="http://www.w3.org/2000/svg" baseProfile="tiny" version="1.2" viewBox="0 0 1920 520">
  <!-- Generator: Adobe Illustrator 29.0.0, SVG Export Plug-In . SVG Version: 2.1.0 Build 186)  -->
  <g>
    <path d="M507.1,257.9c0,3.7.3,7.2.8,10.7.5,3.4,1.4,6.5,2.6,9.2,1.2,2.7,2.8,4.8,4.8,6.4,2,1.6,4.4,2.4,7.4,2.4,5.4,0,9.3-1.9,11.7-5.7,2.4-3.8,4.1-9.6,5.1-17.5h28.5c-.6,14.4-4.4,25.3-11.5,32.8-7,7.5-18.1,11.3-33.3,11.3s-20.4-1.9-26.9-5.7c-6.4-3.8-11.2-8.9-14.2-15.2-3.1-6.3-4.9-13.3-5.6-21.1-.7-7.8-1-15.6-1-23.4s.6-16.2,1.7-23.9c1.1-7.7,3.4-14.5,6.9-20.4,3.4-6,8.4-10.7,14.8-14.2,6.4-3.5,15-5.3,25.7-5.3s16.7,1.5,22.6,4.5c5.9,3,10.5,7.2,13.9,12.6,3.4,5.4,5.7,12,6.9,19.8,1.2,7.7,1.8,16.3,1.8,25.8v7.1h-62.7v9.9ZM538.6,216.7c-.5-3.6-1.3-6.7-2.4-9.2-1.1-2.5-2.8-4.4-4.8-5.7-2.1-1.3-4.7-2-7.9-2s-5.9.7-7.9,2.2c-2.1,1.5-3.7,3.4-4.9,5.7-1.2,2.4-2.1,5-2.6,7.9-.5,2.9-.8,5.8-.8,8.7v4.8h32.4c-.2-4.7-.5-8.9-.9-12.5Z" fill="#1d1d1b"/>
    <path d="M609.5,268.7c0,5.4,1.4,9.7,4.2,13,2.8,3.3,6.9,4.9,12.3,4.9s8.8-1.2,11.7-3.7c2.9-2.4,4.4-6.1,4.4-11s-1.1-7-3.4-9.1c-2.3-2.1-5-3.7-8-4.9l-22.3-8c-8.7-3.1-15.3-7.4-19.8-13-4.4-5.6-6.7-12.7-6.7-21.5s.8-9.8,2.5-14.4c1.7-4.5,4.4-8.5,8-11.8,3.7-3.4,8.4-6,14.1-8,5.7-2,12.7-3,20.8-3,14.4,0,25,3.1,31.9,9.2,6.9,6.1,10.3,14.8,10.3,26v5.1h-28.5c0-6.4-1-11.1-3.1-14.1-2.1-3-5.7-4.5-10.9-4.5s-7.5,1.1-10.5,3.3c-3,2.2-4.5,5.6-4.5,10s1,5.8,2.9,8.3c1.9,2.5,5.5,4.5,10.9,6.2l19.1,6.4c10,3.4,17,7.8,21.1,13.2,4.1,5.4,6.2,12.8,6.2,22.2s-1.1,12.3-3.4,17.1-5.5,8.8-9.5,12.1c-4.1,3.2-8.9,5.5-14.5,6.9-5.6,1.4-11.8,2.1-18.5,2.1s-16.3-.8-22.2-2.5c-5.9-1.7-10.6-4.2-14-7.6-3.4-3.4-5.9-7.5-7.2-12.3-1.4-4.8-2.1-10.2-2.1-16.2v-4.4h28.5v4.1Z" fill="#1d1d1b"/>
    <path d="M718.6,181.4v13.1h.5c3.5-5.8,7.5-10,11.8-12.5,4.4-2.5,9.8-3.8,16.2-3.8,13,0,22.6,5.1,28.7,15.3,6.1,10.2,9.2,26.8,9.2,49.7s-3.1,39.4-9.2,49.4c-6.1,10-15.7,14.9-28.7,14.9s-11.1-1.1-15.3-3.3c-4.2-2.2-8-5.8-11.4-10.7h-.5v51.2h-31.7v-163.3h30.3ZM723.1,273.7c2.1,6.8,6.6,10.2,13.7,10.2s11.4-3.4,13.4-10.2c2.1-6.8,3.1-17,3.1-30.4s-1-23.6-3.1-30.4c-2.1-6.8-6.5-10.2-13.4-10.2s-11.6,3.4-13.7,10.2c-2.1,6.8-3.1,17-3.1,30.4s1,23.6,3.1,30.4Z" fill="#1d1d1b"/>
    <path d="M801.6,215.2c1.7-8.1,4.4-14.9,8.3-20.3,3.8-5.4,8.8-9.6,15-12.4,6.2-2.8,13.8-4.2,22.9-4.2,9.5-.2,17.4,1.1,23.7,3.8,6.3,2.7,11.3,6.8,14.9,12.3s6.3,12.3,7.8,20.4c1.5,8.1,2.3,17.6,2.3,28.5s-.8,19.9-2.5,28c-1.7,8.1-4.4,14.9-8.3,20.3-3.8,5.4-8.8,9.5-15,12.1-6.2,2.6-13.8,3.9-22.9,3.9-9.5.2-17.4-1-23.7-3.6-6.3-2.5-11.3-6.5-14.9-11.9-3.7-5.4-6.3-12.2-7.8-20.4-1.5-8.2-2.3-17.6-2.3-28.4s.8-19.9,2.5-28ZM831.2,260.7c.3,5.4,1,10,2.2,13.8,1.1,3.8,2.9,6.8,5.2,9,2.3,2.1,5.4,3.2,9.2,3.2,6.4,0,10.9-3.4,13.3-10.1,2.4-6.7,3.7-17.8,3.7-33.3s-1.2-26.6-3.7-33.3c-2.5-6.7-6.9-10.1-13.3-10.1s-6.9,1.1-9.2,3.2c-2.3,2.1-4,5.1-5.2,9-1.1,3.8-1.9,8.4-2.2,13.8-.3,5.4-.5,11.2-.5,17.5s.2,12.1.5,17.5Z" fill="#1d1d1b"/>
    <path d="M972.3,217c-.4-2.9-1.1-5.5-2.1-7.9-1-2.4-2.4-4.3-4.2-5.7-1.8-1.5-4.3-2.2-7.4-2.2s-7,.9-9.4,2.6c-2.5,1.8-4.3,4.4-5.5,7.8-1.2,3.4-2.1,7.8-2.5,13.1-.5,5.3-.7,11.5-.7,18.7s.2,14.2.7,19.6c.5,5.4,1.3,9.9,2.5,13.4,1.2,3.5,2.9,6.1,5.2,7.7,2.2,1.6,5.1,2.4,8.6,2.4,5.4,0,9.3-2.3,11.7-6.9,2.4-4.6,3.7-11.9,3.7-22.1h30.3c0,16.2-3.6,28.6-10.9,37.1-7.3,8.5-19.3,12.7-36.2,12.7s-14.9-1-20.8-2.9c-5.9-1.9-10.8-5.4-14.7-10.3-3.9-5-6.9-11.6-8.8-20-2-8.3-3-18.7-3-31.1s1.2-23.2,3.7-31.6c2.4-8.3,5.9-15,10.3-20,4.4-5,9.7-8.5,15.8-10.5,6.1-2,12.9-3,20.2-3,14.7,0,25.8,4.3,33.2,12.9,7.4,8.6,11.1,20.2,11.1,34.9h-30.3c0-3.1-.2-6-.6-9Z" fill="#1d1d1b"/>
    <path d="M1051.5,141v53.1h.5c6.1-10.6,16.2-15.8,30.1-15.8s17.9,2.8,23.3,8.3c5.4,5.5,8.2,14.5,8.2,26.9v91.6h-31.7v-85.2c0-6.4-1.1-10.9-3.2-13.4-2.1-2.5-5.6-3.8-10.3-3.8-11.2,0-16.8,6.8-16.8,20.4v82h-31.7v-164h31.7Z" fill="#1d1d1b"/>
  </g>
  <path d="M207.9,479.2s0,0,0,0h0s0,0,0,0c-20.8-11-43.4-10.9-46.5-10.8H59.1v27.1h102.5c.1,0,.3,0,.4,0,.3,0,31.3-.9,45.9,17.5h0c14.6-18.4,45.6-17.5,45.9-17.5.1,0,.3,0,.4,0h101.2v-27.1h-101c-3,0-25.7-.2-46.5,10.8" fill="#1d1d1b"/>
  <path d="M404.2,355.6V5.5H10v349.6c0,.2,0,.5,0,.7,0,2.3-.1,23.2,16.7,40.5,13,13.3,32,20.3,56.4,21h0s.8,0,.8,0h0c0,.1,11.4.1,11.4.1,0,0,0,0,0-.1h66.7c.3,0,31.3-.9,45.9,17.5h0c14.6-18.4,45.6-17.5,45.9-17.5h74c26.2.1,46.4-7,59.9-21.1,16.2-16.9,16.5-37.2,16.4-40.8M330.3,390.4h-75.9c-3,0-25.7-.2-46.5,10.8,0,0,0,0,0,0h0s0,0,0,0c-20.8-11-43.4-10.9-46.4-10.8h-77.8c-16.7-.5-29.3-4.7-37.1-12.6-8.6-8.6-9.3-19.2-9.3-20.9V32.6h340v323.1c0,.2,0,.4,0,.6,0,.1,0,11.9-8.9,21.2-7.9,8.2-20.5,12.4-37.8,12.8h-.1Z" fill="#1d1d1b"/>
  <path d="M297.7,264.2c-.9,0-1.8,0-2.7,0-4.8,0-8.1-3-8.1-3-.5-.5-1-1-1.6-1.4-19.5-14.6-33.9-13.1-43.4-12.1-3.4.4-6.1.6-8,.2-1.8-.6-6.9-4.2-10.5-7.5-27.4-28.2-56.3-27.3-75.7-21.6-18.5,5.4-31.7,16.3-34.2,18.6l-49.5,39.1v34.5l66.5-52.7c.2-.2.5-.4.7-.6,3.9-3.5,39.3-33.2,73,1.7.2.2.4.4.7.6,3.8,3.5,13.7,11.8,22.4,13.9,6.7,1.7,12.4,1,17.5.5,7.6-.8,13.2-1.4,23.8,6.4,3.1,2.8,12.6,10.2,26.5,10.2s2.5,0,3.9-.1c6.8-.3,13.7-.6,27.1,9.7,4.7,3.6,13.3,10.2,23.9,18.1v-34c-3-2.3-5.5-4.2-7.3-5.6-21.3-16.5-36.1-15.8-45-15.4" fill="#1d1d1b"/>
  <polygon points="207.8 435.4 207.8 435.4 207.8 435.5 207.9 435.4 207.9 435.5 207.9 435.4 207.8 435.4" fill="#1d1d1b"/>
  <path d="M334,189.6c-2.7-9.5-6.5-18.7-11.3-27.4l15.8-15.8-51.5-51.5-15.8,15.8c-8.6-4.8-17.8-8.6-27.4-11.3v-22.3h-72.8v22.3c-9.5,2.7-18.7,6.5-27.4,11.3l-15.8-15.8-51.5,51.5,15.8,15.8c-4.8,8.7-8.6,17.9-11.3,27.4h-22.3v61.3l21.1-16.7v-23.6h18l1.8-8.3c2.8-12.9,7.8-25,15-36.1l4.6-7.1-12.7-12.7,21.7-21.6,12.7,12.7,7.1-4.6c11.1-7.1,23.2-12.2,36.1-15l8.3-1.8v-18h30.6v18l8.3,1.8c12.9,2.8,25,7.8,36.1,15l7.1,4.6,12.7-12.7,21.7,21.7-12.7,12.7,4.6,7.1c7.1,11.1,12.2,23.2,15,36.1l1.8,8.3h18v33.5l.9.6c1.7,1.2,3.5,2.4,5.4,3.9,1.8,1.4,4.3,3.3,7.3,5.6l7.5,5.7v-70.3h-22.3Z" fill="#1d1d1b"/>
  <polygon points="205.3 514.4 205.3 514.4 205.3 514.5 205.3 514.5 205.3 514.5 205.3 514.4" fill="#1d1d1b"/>
  <path d="M205.3,436.2h0s0,0,0,0h0s0,0,0,0c0,0,0,0,0,0Z" fill="#1d1d1b"/>
  <g>
    <path d="M1352.6,97.6v13.6h-29.5v19.4h27.7v13.6h-27.7v35.8h-16.6v-82.5h46.1Z" fill="#1d1d1b"/>
    <path d="M1357.3,135.6c0-3.6.6-6.6,1.7-9.1,1.2-2.4,2.7-4.4,4.7-5.9,2-1.5,4.3-2.6,6.9-3.2,2.7-.7,5.5-1,8.5-1,4.8,0,8.6.5,11.6,1.4,2.9.9,5.2,2.2,6.8,3.9,1.6,1.7,2.7,3.7,3.3,6.1.6,2.4.9,4.9.9,7.7v32.7c0,2.9.1,5.2.4,6.8.3,1.6.8,3.4,1.6,5.2h-15.3c-.5-1-.9-2.1-1.2-3.2-.3-1.1-.5-2.2-.8-3.3h-.2c-1.8,3.2-4,5.3-6.4,6.3-2.4,1-5.6,1.4-9.4,1.4s-5.1-.5-7.1-1.4c-1.9-1-3.5-2.3-4.6-4-1.2-1.7-2-3.6-2.5-5.7-.5-2.1-.8-4.2-.8-6.3s.3-5.5.9-7.6c.6-2.1,1.6-3.9,2.8-5.4,1.3-1.5,2.9-2.8,4.9-3.8,2-1,4.3-1.9,7.1-2.7l9-2.4c2.4-.6,4-1.5,5-2.5.9-1.1,1.4-2.7,1.4-4.7s-.6-4.3-1.7-5.6c-1.1-1.3-3-2-5.7-2s-4.3.7-5.5,2.2c-1.2,1.5-1.8,3.4-1.8,5.9v1.7h-14.3v-1.5ZM1382.9,151.1c-1.2.5-2.4.9-3.4,1.1-3.2.7-5.5,1.8-6.9,3.5-1.4,1.6-2.1,3.8-2.1,6.6s.5,4.4,1.4,6.1c.9,1.7,2.5,2.5,4.6,2.5s2.2-.2,3.4-.5,2.2-.9,3.2-1.7c1-.8,1.8-1.8,2.4-3,.6-1.2.9-2.7.9-4.4v-12.3c-1.1.8-2.2,1.5-3.5,2Z" fill="#1d1d1b"/>
    <path d="M1442.6,135.9c-.2-1.5-.5-2.8-1-4-.5-1.2-1.2-2.2-2.1-2.9-.9-.7-2.2-1.1-3.7-1.1s-3.5.4-4.7,1.3c-1.2.9-2.2,2.2-2.8,3.9-.6,1.7-1,3.9-1.3,6.6s-.3,5.8-.3,9.4.1,7.1.3,9.9c.2,2.7.7,5,1.3,6.8.6,1.8,1.5,3.1,2.6,3.9,1.1.8,2.6,1.2,4.3,1.2,2.7,0,4.7-1.2,5.9-3.5,1.2-2.3,1.8-6,1.8-11.1h15.3c0,8.2-1.8,14.4-5.5,18.7-3.7,4.3-9.7,6.4-18.2,6.4s-7.5-.5-10.5-1.4c-3-1-5.4-2.7-7.4-5.2-2-2.5-3.5-5.9-4.5-10.1-1-4.2-1.5-9.4-1.5-15.7s.6-11.7,1.8-15.9c1.2-4.2,3-7.6,5.2-10.1,2.2-2.5,4.9-4.3,8-5.3,3.1-1,6.5-1.5,10.2-1.5,7.4,0,13,2.2,16.7,6.5,3.7,4.3,5.6,10.2,5.6,17.6h-15.3c0-1.5,0-3-.3-4.5Z" fill="#1d1d1b"/>
    <path d="M1498.2,172.9c-1.7,3.1-3.9,5.3-6.6,6.6-2.7,1.3-5.8,2-9.2,2-5.1,0-9-1.3-11.7-4-2.7-2.7-4.1-7.1-4.1-13.4v-46.1h16v42.9c0,3.2.5,5.5,1.6,6.8,1.1,1.3,2.8,1.9,5.2,1.9,5.6,0,8.4-3.4,8.4-10.3v-41.3h16v62.2h-15.3v-7.3h-.2Z" fill="#1d1d1b"/>
    <path d="M1540.9,97.6v82.5h-16v-82.5h16Z" fill="#1d1d1b"/>
    <path d="M1571.5,100.2v17.8h9.2v10.9h-9.2v33.6c0,2.5.4,4.2,1.1,5.3.7,1,2.3,1.6,4.6,1.6s1.2,0,1.9,0c.6,0,1.2,0,1.7-.2v11.1c-1.8,0-3.5,0-5.1.2-1.7.1-3.4.2-5.3.2-3.1,0-5.6-.2-7.6-.6s-3.5-1.3-4.5-2.5c-1-1.3-1.8-2.9-2.1-5-.4-2.1-.6-4.7-.6-7.9v-35.6h-8.1v-10.9h8.1v-17.8h16Z" fill="#1d1d1b"/>
    <path d="M1586.2,135.6c0-3.6.6-6.6,1.7-9.1,1.2-2.4,2.7-4.4,4.7-5.9,2-1.5,4.3-2.6,6.9-3.2,2.7-.7,5.5-1,8.5-1,4.8,0,8.6.5,11.6,1.4,2.9.9,5.2,2.2,6.8,3.9,1.6,1.7,2.7,3.7,3.3,6.1.6,2.4.9,4.9.9,7.7v32.7c0,2.9.1,5.2.4,6.8.3,1.6.8,3.4,1.6,5.2h-15.3c-.5-1-.9-2.1-1.2-3.2-.3-1.1-.5-2.2-.8-3.3h-.2c-1.8,3.2-4,5.3-6.4,6.3-2.4,1-5.6,1.4-9.4,1.4s-5.1-.5-7.1-1.4c-1.9-1-3.5-2.3-4.6-4-1.2-1.7-2-3.6-2.5-5.7-.5-2.1-.8-4.2-.8-6.3s.3-5.5.9-7.6c.6-2.1,1.6-3.9,2.8-5.4,1.3-1.5,2.9-2.8,4.9-3.8,2-1,4.3-1.9,7.1-2.7l9-2.4c2.4-.6,4-1.5,5-2.5.9-1.1,1.4-2.7,1.4-4.7s-.6-4.3-1.7-5.6c-1.1-1.3-3-2-5.7-2s-4.3.7-5.5,2.2c-1.2,1.5-1.8,3.4-1.8,5.9v1.7h-14.3v-1.5ZM1611.8,151.1c-1.2.5-2.4.9-3.4,1.1-3.2.7-5.5,1.8-6.9,3.5-1.4,1.6-2.1,3.8-2.1,6.6s.5,4.4,1.4,6.1c.9,1.7,2.5,2.5,4.6,2.5s2.2-.2,3.4-.5,2.2-.9,3.2-1.7c1-.8,1.8-1.8,2.4-3,.6-1.2.9-2.7.9-4.4v-12.3c-1.1.8-2.2,1.5-3.5,2Z" fill="#1d1d1b"/>
    <path d="M1673.6,173.6c-1.8,2.9-3.8,5-6,6.1-2.2,1.2-4.9,1.7-8.2,1.7-6.6,0-11.4-2.5-14.5-7.5-3.1-5-4.6-13.3-4.6-24.9s1.5-19.9,4.6-25c3.1-5.1,7.9-7.7,14.5-7.7s5.6.6,7.7,1.8c2.1,1.2,4,3.1,5.7,5.5h.2v-26.1h16v82.5h-15.3v-6.6h-.2ZM1657.9,164.4c1,3.4,3.3,5.1,6.8,5.1s5.8-1.7,6.9-5.1c1-3.4,1.6-8.5,1.6-15.3s-.5-11.9-1.6-15.3c-1-3.4-3.3-5.1-6.9-5.1s-5.7,1.7-6.8,5.1c-1,3.4-1.6,8.5-1.6,15.3s.5,11.9,1.6,15.3Z" fill="#1d1d1b"/>
    <path d="M1759.1,173.6c-1.8,2.9-3.8,5-6,6.1-2.2,1.2-4.9,1.7-8.2,1.7-6.6,0-11.4-2.5-14.5-7.5-3.1-5-4.6-13.3-4.6-24.9s1.5-19.9,4.6-25c3.1-5.1,7.9-7.7,14.5-7.7s5.6.6,7.7,1.8c2.1,1.2,4,3.1,5.7,5.5h.2v-26.1h16v82.5h-15.3v-6.6h-.2ZM1743.5,164.4c1,3.4,3.3,5.1,6.8,5.1s5.8-1.7,6.9-5.1c1-3.4,1.6-8.5,1.6-15.3s-.5-11.9-1.6-15.3c-1-3.4-3.3-5.1-6.9-5.1s-5.7,1.7-6.8,5.1c-1,3.4-1.6,8.5-1.6,15.3s.5,11.9,1.6,15.3Z" fill="#1d1d1b"/>
    <path d="M1798.9,156.5c0,1.8.1,3.6.4,5.4.3,1.7.7,3.3,1.3,4.6.6,1.3,1.4,2.4,2.4,3.2,1,.8,2.2,1.2,3.7,1.2,2.7,0,4.7-1,5.9-2.9,1.2-1.9,2.1-4.9,2.5-8.8h14.3c-.3,7.2-2.2,12.8-5.8,16.5-3.5,3.8-9.1,5.7-16.8,5.7s-10.3-1-13.5-2.9c-3.2-1.9-5.6-4.5-7.2-7.6-1.5-3.2-2.5-6.7-2.8-10.6-.3-3.9-.5-7.9-.5-11.8s.3-8.2.9-12c.6-3.9,1.7-7.3,3.5-10.3s4.2-5.4,7.5-7.2c3.2-1.8,7.6-2.7,12.9-2.7s8.4.8,11.4,2.3c3,1.5,5.3,3.6,7,6.4,1.7,2.7,2.9,6.1,3.5,9.9.6,3.9.9,8.2.9,13v3.6h-31.6v5ZM1814.7,135.7c-.2-1.8-.6-3.4-1.2-4.6-.6-1.3-1.4-2.2-2.4-2.9-1-.7-2.4-1-4-1s-2.9.4-4,1.1c-1,.7-1.9,1.7-2.5,2.9-.6,1.2-1.1,2.5-1.3,4-.3,1.5-.4,2.9-.4,4.4v2.4h16.3c0-2.4-.2-4.5-.5-6.3Z" fill="#1d1d1b"/>
  </g>
  <g>
    <path d="M1307.3,198.1h16.6v82.5h-16.6v-82.5Z" fill="#1d1d1b"/>
    <path d="M1351.1,218.5v7.3h.2c1.7-3.1,3.9-5.3,6.6-6.8,2.7-1.4,5.8-2.1,9.2-2.1,5.1,0,9,1.4,11.7,4.2,2.7,2.8,4.1,7.3,4.1,13.5v46.1h-16v-42.9c0-3.2-.5-5.5-1.6-6.8-1.1-1.3-2.8-1.9-5.2-1.9-5.6,0-8.4,3.4-8.4,10.3v41.3h-16v-62.2h15.3Z" fill="#1d1d1b"/>
    <path d="M1389.1,229.3v-10.9h8.1v-7.1c0-2.8.4-5.1,1.2-7.1.8-1.9,1.9-3.5,3.3-4.6,1.4-1.2,3.2-2,5.3-2.5,2.1-.5,4.4-.8,6.9-.8s5.7.1,8.6.3v11.3c-.4,0-.9-.1-1.6-.1h-1.5c-2.2,0-3.8.4-4.7,1.2-.9.8-1.4,2-1.4,3.8v5.4h9.2v10.9h-9.2v51.3h-16v-51.3h-8.1Z" fill="#1d1d1b"/>
    <path d="M1427.1,235.5c.8-4.1,2.2-7.5,4.2-10.2,1.9-2.7,4.5-4.8,7.6-6.2,3.1-1.4,7-2.1,11.5-2.1,4.8,0,8.7.6,11.9,1.9,3.2,1.3,5.7,3.4,7.5,6.2s3.2,6.2,3.9,10.3c.8,4.1,1.2,8.9,1.2,14.3s-.4,10-1.3,14.1c-.8,4.1-2.2,7.5-4.2,10.2-1.9,2.7-4.5,4.8-7.6,6.1-3.1,1.3-7,2-11.5,2-4.8,0-8.7-.5-11.9-1.8-3.2-1.3-5.7-3.3-7.5-6-1.8-2.7-3.2-6.2-3.9-10.3-.8-4.1-1.2-8.9-1.2-14.3s.4-10,1.3-14.1ZM1442,258.3c.2,2.7.5,5,1.1,6.9.6,1.9,1.4,3.4,2.6,4.5,1.2,1.1,2.7,1.6,4.6,1.6,3.2,0,5.5-1.7,6.7-5.1,1.2-3.4,1.8-9,1.8-16.8s-.6-13.4-1.8-16.8c-1.2-3.4-3.5-5.1-6.7-5.1s-3.5.5-4.6,1.6c-1.2,1.1-2,2.6-2.6,4.5-.6,1.9-.9,4.2-1.1,6.9-.2,2.7-.2,5.6-.2,8.8s0,6.1.2,8.8Z" fill="#1d1d1b"/>
    <path d="M1498.7,218.5v8.3h.2c1.6-3,3.6-5.4,5.9-7.2,2.3-1.8,5.1-2.7,8.4-2.7s.9,0,1.4,0c.5,0,1,0,1.4.2v15.3c-.8,0-1.7-.1-2.5-.2-.8,0-1.6,0-2.5,0-1.4,0-2.8.2-4.2.6-1.4.4-2.7,1-3.8,1.9-1.2.9-2.1,2-2.8,3.5-.7,1.4-1,3.2-1,5.3v37.3h-16v-62.2h15.3Z" fill="#1d1d1b"/>
    <path d="M1537.2,218.5v6.4h.2c2-2.9,4.3-4.9,6.8-6.1,2.5-1.2,5.5-1.8,9-1.8s6.8.8,9.3,2.5c2.5,1.7,4.2,4.2,5,7.4h.2c1.2-3.3,3.2-5.8,6-7.5,2.7-1.7,6-2.5,9.8-2.5s9.2,1.6,11.7,4.8c2.5,3.2,3.8,7.8,3.8,13.8v45.2h-16v-43.5c0-2.6-.5-4.6-1.4-6-1-1.4-2.6-2.1-4.8-2.1s-4.6.8-6.1,2.5c-1.5,1.7-2.3,4.4-2.3,8.1v40.9h-16v-43.5c0-2.6-.5-4.6-1.4-6-1-1.4-2.6-2.1-4.8-2.1s-4.6.8-6.1,2.5c-1.5,1.7-2.3,4.4-2.3,8.1v40.9h-16v-62.2h15.3Z" fill="#1d1d1b"/>
    <path d="M1609.4,236c0-3.6.6-6.6,1.7-9.1,1.2-2.4,2.7-4.4,4.7-5.9,2-1.5,4.3-2.6,6.9-3.2,2.7-.7,5.5-1,8.5-1,4.8,0,8.6.5,11.6,1.4,2.9.9,5.2,2.2,6.8,3.9,1.6,1.7,2.7,3.7,3.3,6.1.6,2.4.9,4.9.9,7.7v32.7c0,2.9.1,5.2.4,6.8.3,1.6.8,3.4,1.6,5.2h-15.3c-.5-1-.9-2.1-1.2-3.2-.3-1.1-.5-2.2-.8-3.3h-.2c-1.8,3.2-4,5.3-6.4,6.3-2.4,1-5.6,1.4-9.4,1.4s-5.1-.5-7.1-1.4c-1.9-1-3.5-2.3-4.6-4-1.2-1.7-2-3.6-2.5-5.7-.5-2.1-.8-4.2-.8-6.3s.3-5.5.9-7.6c.6-2.1,1.6-3.9,2.8-5.4,1.3-1.5,2.9-2.8,4.9-3.8,2-1,4.3-1.9,7.1-2.7l9-2.4c2.4-.6,4-1.5,5-2.5.9-1.1,1.4-2.7,1.4-4.7s-.6-4.3-1.7-5.6c-1.1-1.3-3-2-5.7-2s-4.3.7-5.5,2.2c-1.2,1.5-1.8,3.4-1.8,5.9v1.7h-14.3v-1.5ZM1635.1,251.6c-1.2.5-2.4.9-3.4,1.1-3.2.7-5.5,1.8-6.9,3.5-1.4,1.6-2.1,3.8-2.1,6.6s.5,4.4,1.4,6.1c.9,1.7,2.5,2.5,4.6,2.5s2.2-.2,3.4-.5,2.2-.9,3.2-1.7c1-.8,1.8-1.8,2.4-3,.6-1.2.9-2.7.9-4.4v-12.3c-1.1.8-2.2,1.5-3.5,2ZM1646.8,194.5l-11.3,16.6h-10.9l6.2-16.6h16Z" fill="#1d1d1b"/>
    <path d="M1684.6,200.7v17.8h9.2v10.9h-9.2v33.6c0,2.5.4,4.2,1.1,5.3.7,1,2.3,1.6,4.6,1.6s1.2,0,1.9,0c.6,0,1.2,0,1.7-.2v11.1c-1.8,0-3.5,0-5.1.2-1.7.1-3.4.2-5.3.2-3.1,0-5.6-.2-7.6-.6s-3.5-1.3-4.5-2.5c-1-1.3-1.8-2.9-2.1-5-.4-2.1-.6-4.7-.6-7.9v-35.6h-8.1v-10.9h8.1v-17.8h16Z" fill="#1d1d1b"/>
    <path d="M1715.9,197.2v13.6h-16v-13.6h16ZM1715.9,218.5v62.2h-16v-62.2h16Z" fill="#1d1d1b"/>
    <path d="M1756.8,236.4c-.2-1.5-.5-2.8-1-4-.5-1.2-1.2-2.2-2.1-2.9-.9-.7-2.2-1.1-3.7-1.1s-3.5.4-4.7,1.3c-1.2.9-2.2,2.2-2.8,3.9-.6,1.7-1,3.9-1.3,6.6s-.3,5.8-.3,9.4.1,7.1.3,9.9c.2,2.7.7,5,1.3,6.8.6,1.8,1.5,3.1,2.6,3.9,1.1.8,2.6,1.2,4.3,1.2,2.7,0,4.7-1.2,5.9-3.5,1.2-2.3,1.8-6,1.8-11.1h15.3c0,8.2-1.8,14.4-5.5,18.7-3.7,4.3-9.7,6.4-18.2,6.4s-7.5-.5-10.5-1.4c-3-1-5.4-2.7-7.4-5.2-2-2.5-3.5-5.9-4.5-10.1-1-4.2-1.5-9.4-1.5-15.7s.6-11.7,1.8-15.9c1.2-4.2,3-7.6,5.2-10.1,2.2-2.5,4.9-4.3,8-5.3,3.1-1,6.5-1.5,10.2-1.5,7.4,0,13,2.2,16.7,6.5,3.7,4.3,5.6,10.2,5.6,17.6h-15.3c0-1.5,0-3-.3-4.5Z" fill="#1d1d1b"/>
    <path d="M1780.5,236c0-3.6.6-6.6,1.7-9.1,1.2-2.4,2.7-4.4,4.7-5.9,2-1.5,4.3-2.6,6.9-3.2,2.7-.7,5.5-1,8.5-1,4.8,0,8.6.5,11.6,1.4,2.9.9,5.2,2.2,6.8,3.9,1.6,1.7,2.7,3.7,3.3,6.1.6,2.4.9,4.9.9,7.7v32.7c0,2.9.1,5.2.4,6.8.3,1.6.8,3.4,1.6,5.2h-15.3c-.5-1-.9-2.1-1.2-3.2-.3-1.1-.5-2.2-.8-3.3h-.2c-1.8,3.2-4,5.3-6.4,6.3-2.4,1-5.6,1.4-9.4,1.4s-5.1-.5-7.1-1.4c-1.9-1-3.5-2.3-4.6-4-1.2-1.7-2-3.6-2.5-5.7-.5-2.1-.8-4.2-.8-6.3s.3-5.5.9-7.6c.6-2.1,1.6-3.9,2.8-5.4,1.3-1.5,2.9-2.8,4.9-3.8,2-1,4.3-1.9,7.1-2.7l9-2.4c2.4-.6,4-1.5,5-2.5.9-1.1,1.4-2.7,1.4-4.7s-.6-4.3-1.7-5.6c-1.1-1.3-3-2-5.7-2s-4.3.7-5.5,2.2c-1.2,1.5-1.8,3.4-1.8,5.9v1.7h-14.3v-1.5ZM1806.2,251.6c-1.2.5-2.4.9-3.4,1.1-3.2.7-5.5,1.8-6.9,3.5-1.4,1.6-2.1,3.8-2.1,6.6s.5,4.4,1.4,6.1c.9,1.7,2.5,2.5,4.6,2.5s2.2-.2,3.4-.5,2.2-.9,3.2-1.7c1-.8,1.8-1.8,2.4-3,.6-1.2.9-2.7.9-4.4v-12.3c-1.1.8-2.2,1.5-3.5,2Z" fill="#1d1d1b"/>
    <path d="M1868.2,289.1c2.9,0,5-.8,6.3-2.3,1.3-1.5,2-3.6,2.3-6.1l-17.5-62.2h16.6l9.2,43h.2l8.1-43h16l-15,58c-1.4,5.2-2.7,9.3-4,12.5-1.3,3.2-2.8,5.7-4.5,7.4-1.7,1.7-3.8,2.9-6.2,3.4-2.4.5-5.5.8-9.2.8h-6.5v-11.9c1.4.2,2.8.3,4.2.3Z" fill="#1d1d1b"/>
  </g>
  <g>
    <path d="M1352.6,312.2h-29.5v19.4h27.7v13.6h-27.7v22.2h30.6v13.6h-47.3v-82.5h46.1v13.6Z" fill="#1d1d1b"/>
    <path d="M1378.2,298.6v82.5h-16v-82.5h16Z" fill="#1d1d1b"/>
    <path d="M1403,357.4c0,1.8.1,3.6.4,5.4.3,1.7.7,3.3,1.3,4.6.6,1.3,1.4,2.4,2.4,3.2,1,.8,2.2,1.2,3.7,1.2,2.7,0,4.7-1,5.9-2.9,1.2-1.9,2.1-4.9,2.5-8.8h14.3c-.3,7.2-2.2,12.8-5.8,16.5-3.5,3.8-9.1,5.7-16.8,5.7s-10.3-1-13.5-2.9c-3.2-1.9-5.6-4.5-7.2-7.6-1.5-3.2-2.5-6.7-2.8-10.6-.3-3.9-.5-7.9-.5-11.8s.3-8.2.9-12c.6-3.9,1.7-7.3,3.5-10.3,1.7-3,4.2-5.4,7.5-7.2,3.2-1.8,7.6-2.7,12.9-2.7s8.4.8,11.4,2.3c3,1.5,5.3,3.6,7,6.4,1.7,2.7,2.9,6.1,3.5,9.9.6,3.9.9,8.2.9,13v3.6h-31.6v5ZM1418.9,336.7c-.2-1.8-.6-3.4-1.2-4.6s-1.4-2.2-2.4-2.9c-1-.7-2.4-1-4-1s-2.9.4-4,1.1c-1,.7-1.9,1.7-2.5,2.9-.6,1.2-1.1,2.5-1.3,4-.3,1.5-.4,2.9-.4,4.4v2.4h16.3c0-2.4-.2-4.5-.5-6.3Z" fill="#1d1d1b"/>
    <path d="M1472.6,336.9c-.2-1.5-.5-2.8-1-4-.5-1.2-1.2-2.2-2.1-2.9-.9-.7-2.2-1.1-3.7-1.1s-3.5.4-4.7,1.3c-1.2.9-2.2,2.2-2.8,3.9-.6,1.7-1,3.9-1.3,6.6s-.3,5.8-.3,9.4.1,7.2.3,9.9c.2,2.7.7,5,1.3,6.8.6,1.8,1.5,3.1,2.6,3.9,1.1.8,2.6,1.2,4.3,1.2,2.7,0,4.7-1.2,5.9-3.5,1.2-2.3,1.8-6,1.8-11.1h15.3c0,8.2-1.8,14.4-5.5,18.7-3.7,4.3-9.7,6.4-18.2,6.4s-7.5-.5-10.5-1.4c-3-1-5.4-2.7-7.4-5.2-2-2.5-3.5-5.9-4.5-10.1-1-4.2-1.5-9.4-1.5-15.7s.6-11.7,1.8-15.9c1.2-4.2,3-7.6,5.2-10.1,2.2-2.5,4.9-4.3,8-5.3,3.1-1,6.5-1.5,10.2-1.5,7.4,0,13,2.2,16.7,6.5,3.7,4.3,5.6,10.2,5.6,17.6h-15.3c0-1.5,0-3-.3-4.5Z" fill="#1d1d1b"/>
    <path d="M1515.9,301.1v17.8h9.2v10.9h-9.2v33.6c0,2.5.4,4.2,1.1,5.3.7,1,2.3,1.6,4.6,1.6s1.2,0,1.9,0c.6,0,1.2,0,1.7-.2v11.1c-1.8,0-3.5,0-5.1.2-1.7.1-3.4.2-5.3.2-3.1,0-5.6-.2-7.6-.6s-3.5-1.3-4.5-2.5c-1-1.3-1.8-2.9-2.1-5-.4-2.1-.6-4.7-.6-7.9v-35.6h-8.1v-10.9h8.1v-17.8h16Z" fill="#1d1d1b"/>
    <path d="M1545.9,318.9v8.3h.2c1.6-3,3.6-5.4,5.9-7.2,2.3-1.8,5.1-2.7,8.4-2.7s.9,0,1.4,0c.5,0,1,0,1.4.2v15.3c-.8,0-1.7-.1-2.5-.2-.8,0-1.6,0-2.5,0-1.4,0-2.8.2-4.2.6-1.4.4-2.7,1-3.8,1.9-1.2.9-2.1,2-2.8,3.5-.7,1.4-1,3.2-1,5.3v37.3h-16v-62.2h15.3Z" fill="#1d1d1b"/>
    <path d="M1568.4,335.9c.8-4.1,2.2-7.5,4.2-10.2,1.9-2.7,4.5-4.8,7.6-6.2,3.1-1.4,7-2.1,11.5-2.1,4.8,0,8.7.6,11.9,1.9,3.2,1.3,5.7,3.4,7.5,6.2,1.8,2.8,3.2,6.2,3.9,10.3.8,4.1,1.2,8.9,1.2,14.3s-.4,10-1.3,14.1c-.8,4.1-2.2,7.5-4.2,10.2-1.9,2.7-4.5,4.8-7.6,6.1-3.1,1.3-7,2-11.5,2-4.8,0-8.7-.5-11.9-1.8-3.2-1.3-5.7-3.3-7.5-6-1.8-2.7-3.2-6.2-3.9-10.3-.8-4.1-1.2-8.9-1.2-14.3s.4-10,1.3-14.1ZM1583.3,358.8c.2,2.7.5,5,1.1,6.9.6,1.9,1.4,3.4,2.6,4.5,1.2,1.1,2.7,1.6,4.6,1.6,3.2,0,5.5-1.7,6.7-5.1,1.2-3.4,1.8-9,1.8-16.8s-.6-13.4-1.8-16.8c-1.2-3.4-3.5-5.1-6.7-5.1s-3.5.5-4.6,1.6c-1.2,1.1-2,2.6-2.6,4.5-.6,1.9-.9,4.2-1.1,6.9-.2,2.7-.2,5.6-.2,8.8s0,6.1.2,8.8ZM1606.3,295l-11.3,16.6h-10.9l6.2-16.6h16Z" fill="#1d1d1b"/>
    <path d="M1639.9,318.9v7.3h.2c1.7-3.1,3.9-5.3,6.6-6.8,2.7-1.4,5.8-2.1,9.2-2.1,5.1,0,9,1.4,11.7,4.2,2.7,2.8,4.1,7.3,4.1,13.5v46.1h-16v-42.9c0-3.2-.5-5.5-1.6-6.8-1.1-1.3-2.8-1.9-5.2-1.9-5.6,0-8.4,3.4-8.4,10.3v41.3h-16v-62.2h15.3Z" fill="#1d1d1b"/>
    <path d="M1699,297.7v13.6h-16v-13.6h16ZM1699,318.9v62.2h-16v-62.2h16Z" fill="#1d1d1b"/>
    <path d="M1739.9,336.9c-.2-1.5-.5-2.8-1-4-.5-1.2-1.2-2.2-2.1-2.9-.9-.7-2.2-1.1-3.7-1.1s-3.5.4-4.7,1.3c-1.2.9-2.2,2.2-2.8,3.9-.6,1.7-1,3.9-1.3,6.6s-.3,5.8-.3,9.4.1,7.2.3,9.9c.2,2.7.7,5,1.3,6.8.6,1.8,1.5,3.1,2.6,3.9,1.1.8,2.6,1.2,4.3,1.2,2.7,0,4.7-1.2,5.9-3.5,1.2-2.3,1.8-6,1.8-11.1h15.3c0,8.2-1.8,14.4-5.5,18.7-3.7,4.3-9.7,6.4-18.2,6.4s-7.5-.5-10.5-1.4c-3-1-5.4-2.7-7.4-5.2-2-2.5-3.5-5.9-4.5-10.1-1-4.2-1.5-9.4-1.5-15.7s.6-11.7,1.8-15.9c1.2-4.2,3-7.6,5.2-10.1,2.2-2.5,4.9-4.3,8-5.3,3.1-1,6.5-1.5,10.2-1.5,7.4,0,13,2.2,16.7,6.5,3.7,4.3,5.6,10.2,5.6,17.6h-15.3c0-1.5,0-3-.3-4.5Z" fill="#1d1d1b"/>
    <path d="M1763.6,336.5c0-3.6.6-6.6,1.7-9.1,1.2-2.4,2.7-4.4,4.7-5.9,2-1.5,4.3-2.6,6.9-3.2,2.7-.7,5.5-1,8.5-1,4.8,0,8.6.5,11.6,1.4,2.9.9,5.2,2.2,6.8,3.9,1.6,1.7,2.7,3.7,3.3,6.1.6,2.4.9,4.9.9,7.7v32.7c0,2.9.1,5.2.4,6.8.3,1.6.8,3.4,1.6,5.2h-15.3c-.5-1-.9-2.1-1.2-3.2-.3-1.1-.5-2.2-.8-3.3h-.2c-1.8,3.2-4,5.3-6.4,6.3-2.4,1-5.6,1.4-9.4,1.4s-5.1-.5-7.1-1.4c-1.9-1-3.5-2.3-4.6-4-1.2-1.7-2-3.6-2.5-5.7-.5-2.1-.8-4.2-.8-6.3s.3-5.5.9-7.6c.6-2.1,1.6-3.9,2.8-5.4,1.3-1.5,2.9-2.8,4.9-3.8,2-1,4.3-1.9,7.1-2.7l9-2.4c2.4-.6,4-1.5,5-2.5.9-1.1,1.4-2.7,1.4-4.7s-.6-4.3-1.7-5.6c-1.1-1.3-3-2-5.7-2s-4.3.7-5.5,2.2c-1.2,1.5-1.8,3.4-1.8,5.9v1.7h-14.3v-1.5ZM1789.3,352.1c-1.2.5-2.4.9-3.4,1.1-3.2.7-5.5,1.9-6.9,3.5-1.4,1.6-2.1,3.8-2.1,6.6s.5,4.4,1.4,6.1c.9,1.7,2.5,2.5,4.6,2.5s2.2-.2,3.4-.5,2.2-.9,3.2-1.7c1-.8,1.8-1.8,2.4-3,.6-1.2.9-2.7.9-4.4v-12.3c-1.1.8-2.2,1.5-3.5,2Z" fill="#1d1d1b"/>
  </g>
  <line x1="1220.5" y1="89.9" x2="1220.5" y2="400.5" fill="none" stroke="#1d1d1b" stroke-miterlimit="10" stroke-width="14"/>
</svg>